PathFileType	4	(X/Y/Z)	/Users/itak/Documents/Research/Walk-IL/dataset/trc/00077_00006.trc
DataRate	CameraRate	NumFrames	NumMarkers	Units	OrigDataRate	OrigDataStartFrame	OrigNumFrames
100.000000	100.000000	4	53	mm	100.000000	90	724
Frame#	Time	RPSI			LPSI			L3			STRN			T10			C7			CLAV			RBAK			LBAK			LSHO			LUPA			LAEL			LAOL			LWTS			LWPS			LFRA			LIFD			LHPS			LHTS			RSHO			RUPA			RAEL			RAOL			RWTS			RWPS			RFRA			RIFD			RHTS			RHPS			RBHD			LFHD			RFHD			LBHD			LHIP			RHIP			RASI			LASI			LKNE			LTHI			LANK			LTIP			LTOE			LMT1			LMT5			LHEE			RKNE			RTHI			RANK			RTIP			RTOE			RMT1			RMT5			RHEE			
		X1	Y1	Z1	X2	Y2	Z2	X3	Y3	Z3	X4	Y4	Z4	X5	Y5	Z5	X6	Y6	Z6	X7	Y7	Z7	X8	Y8	Z8	X9	Y9	Z9	X10	Y10	Z10	X11	Y11	Z11	X12	Y12	Z12	X13	Y13	Z13	X14	Y14	Z14	X15	Y15	Z15	X16	Y16	Z16	X17	Y17	Z17	X18	Y18	Z18	X19	Y19	Z19	X20	Y20	Z20	X21	Y21	Z21	X22	Y22	Z22	X23	Y23	Z23	X24	Y24	Z24	X25	Y25	Z25	X26	Y26	Z26	X27	Y27	Z27	X28	Y28	Z28	X29	Y29	Z29	X30	Y30	Z30	X31	Y31	Z31	X32	Y32	Z32	X33	Y33	Z33	X34	Y34	Z34	X35	Y35	Z35	X36	Y36	Z36	X37	Y37	Z37	X38	Y38	Z38	X39	Y39	Z39	X40	Y40	Z40	X41	Y41	Z41	X42	Y42	Z42	X43	Y43	Z43	X44	Y44	Z44	X45	Y45	Z45	X46	Y46	Z46	X47	Y47	Z47	X48	Y48	Z48	X49	Y49	Z49	X50	Y50	Z50	X51	Y51	Z51	X52	Y52	Z52	X53	Y53	Z53	

91	0.9	295.2182312011719	1034.444702148438	1032.812133789062	309.4546813964844	1031.791381835938	1207.610961914062	297.9933471679688	1081.338134765625	1126.724609375	58.67216491699219	1283.337280273438	1129.957885742188	324.3984375	1215.009033203125	1131.160034179688	269.7454223632812	1482.819458007812	1133.906372070312	90.30581665039062	1397.644775390625	1131.369384765625	330.0424194335938	1343.255981445312	1058.698120117188	291.391845703125	1445.144165039062	1235.73681640625	187.2769775390625	1450.279296875	1307.74755859375	196.7014465332031	1321.46533203125	1383.990356445312	163.9144744873047	1106.268798828125	1396.827270507812	231.0320129394531	1090.615600585938	1313.724487304688	65.94923400878906	870.1028442382812	1324.912353515625	109.1968231201172	846.8179931640625	1378.197998046875	137.5460052490234	998.0156860351562	1401.497802734375	54.37007522583008	690.6011962890625	1294.861572265625	83.01181030273438	776.0994873046875	1379.111938476562	37.79436111450195	789.73681640625	1325.8291015625	204.8674926757812	1445.029418945312	957.3173828125	213.0625762939453	1374.289672851562	894.2788696289062	228.5973510742188	1104.6298828125	877.9917602539062	213.3186950683594	1088.779174804688	974.4513549804688	81.54891204833984	857.2562255859375	924.36865234375	149.8966064453125	839.6326904296875	873.176513671875	212.6477661132812	1026.232543945312	874.8853149414062	80.95848083496094	674.9280395507812	953.3170776367188	52.47975540161133	755.9781494140625	925.4668579101562	108.7516326904297	751.1719360351562	871.062744140625	233.5834808349609	1670.876708984375	1193.05517578125	71.39406585693359	1689.499267578125	1052.574340820312	58.56098175048828	1700.725463867188	1177.346313476562	238.6441955566406	1651.767944335938	1057.00390625	210.5075378417969	965.3218383789062	1299.396484375	227.6195526123047	963.5803833007812	957.468505859375	104.0694580078125	977.3576049804688	981.5064697265625	94.92633819580078	970.70361328125	1251.304321289062	173.1351776123047	500.9801330566406	1263.693115234375	194.9963989257812	644.1395263671875	1297.638427734375	271.4617309570312	49.73598098754883	1290.400024414062	230.0596466064453	267.8835754394531	1290.404541015625	66.94113159179688	46.49803924560547	1277.682250976562	115.5717163085938	44.31890869140625	1225.2626953125	168.176513671875	40.6513671875	1325.147094726562	326.0003051757812	45.30694580078125	1215.777587890625	179.4441833496094	515.6119384765625	964.1641845703125	155.1553955078125	786.200439453125	942.8299560546875	266.2982177734375	44.418212890625	948.954833984375	203.8603210449219	398.6248168945312	952.23095703125	51.16004180908203	41.08985137939453	992.5294189453125	113.2267684936523	43.88492584228516	1030.80908203125	141.0333099365234	47.44927215576172	937.3023681640625	316.3011169433594	44.1927375793457	1004.900695800781	
92	0.91	295.1257019042969	1034.518310546875	1032.872924804688	309.3669128417969	1031.866577148438	1207.710205078125	297.8859252929688	1081.410766601562	1126.779052734375	58.38283920288086	1283.365112304688	1130.166381835938	324.1395568847656	1215.039916992188	1131.282836914062	269.4946899414062	1482.88330078125	1134.062255859375	90.05296325683594	1397.662719726562	1131.554931640625	329.7339172363281	1343.327026367188	1058.823608398438	291.135986328125	1445.170654296875	1235.894165039062	187.1200103759766	1450.312622070312	1307.925659179688	196.5628204345703	1321.440551757812	1384.1513671875	163.8504943847656	1106.266357421875	1396.87744140625	230.8480377197266	1090.6240234375	1313.771850585938	65.80309295654297	870.1036376953125	1324.974731445312	109.0626220703125	846.7013549804688	1378.100463867188	137.4214630126953	997.991943359375	1401.55126953125	54.16341781616211	690.5892944335938	1294.796630859375	82.88706207275391	776.077392578125	1379.095703125	37.64778137207031	789.7745361328125	1325.863891601562	204.5880126953125	1445.05615234375	957.4872436523438	212.7773895263672	1374.346069335938	894.4476318359375	228.3551788330078	1104.685668945312	878.0993041992188	213.0102996826172	1088.808837890625	974.5457153320312	81.48640441894531	857.2337036132812	924.3643798828125	149.8116149902344	839.6624145507812	873.1455078125	212.4927520751953	1026.305053710938	874.9605712890625	80.99657440185547	674.8583374023438	953.2166137695312	52.42866516113281	755.9328002929688	925.3834228515625	108.6948776245117	751.1848754882812	870.9745483398438	233.1972351074219	1671.007934570312	1193.145629882812	71.00531768798828	1689.442993164062	1052.599609375	58.18154144287109	1700.760009765625	1177.428833007812	238.3819274902344	1651.810424804688	1057.141479492188	210.6221466064453	965.5335083007812	1299.70263671875	227.4549713134766	963.6502685546875	957.5746459960938	103.9123458862305	977.4066162109375	981.7274780273438	94.95708465576172	970.7894287109375	1251.531005859375	172.2009735107422	501.1939086914062	1263.730712890625	194.5711059570312	644.210205078125	1297.765258789062	271.5842590332031	49.72454071044922	1290.545654296875	229.5271453857422	267.7899169921875	1290.237670898438	67.06871032714844	46.56745529174805	1277.590576171875	115.6736373901367	44.39852905273438	1225.178955078125	168.2399139404297	40.74979400634766	1325.14111328125	326.0961303710938	45.28998565673828	1215.838256835938	179.1307373046875	515.9136352539062	963.8133544921875	155.0677185058594	786.371826171875	942.8499755859375	266.3861083984375	44.25249481201172	948.7374267578125	203.2804260253906	398.5234069824219	952.0505981445312	51.28461074829102	41.23637008666992	992.427978515625	113.3960571289062	44.01906967163086	1030.714111328125	141.1068267822266	47.43755340576172	937.1734619140625	316.3568420410156	44.07696151733398	1004.73095703125	
93	0.92	295.0373229980469	1034.623413085938	1032.962524414062	309.2707824707031	1031.945190429688	1207.839233398438	297.7832946777344	1081.516845703125	1126.848754882812	58.06826019287109	1283.42041015625	1130.412963867188	323.8604125976562	1215.110473632812	1131.4140625	269.2069396972656	1482.9736328125	1134.23388671875	89.75966644287109	1397.691528320312	1131.7626953125	329.3945007324219	1343.427368164062	1058.953491210938	290.8529663085938	1445.226928710938	1236.057983398438	186.9436187744141	1450.375	1308.120727539062	196.4154052734375	1321.435180664062	1384.323974609375	163.7679443359375	1106.282470703125	1396.928955078125	230.6393737792969	1090.65576171875	1313.819458007812	65.66165924072266	870.1121215820312	1325.042724609375	108.9270324707031	846.598876953125	1378.027465820312	137.2921447753906	997.9867553710938	1401.607299804688	53.97260284423828	690.5883178710938	1294.745849609375	82.74583435058594	776.06689453125	1379.08984375	37.52179336547852	789.8046264648438	1325.90673828125	204.2602233886719	1445.10888671875	957.6787719726562	212.4391326904297	1374.4306640625	894.6315307617188	228.0872802734375	1104.767578125	878.2240600585938	212.6768798828125	1088.857421875	974.6625366210938	81.41692352294922	857.2243041992188	924.365234375	149.7259826660156	839.7140502929688	873.1212158203125	212.3169708251953	1026.405395507812	875.0501708984375	81.06173706054688	674.801025390625	953.120849609375	52.38855361938477	755.8926391601562	925.3020629882812	108.65087890625	751.21435546875	870.8849487304688	232.7708892822266	1671.165893554688	1193.255981445312	70.58458709716797	1689.409912109375	1052.630859375	57.74964141845703	1700.806762695312	1177.518920898438	238.0880889892578	1651.865112304688	1057.2978515625	210.7500915527344	965.7659301757812	1300.056884765625	227.3056335449219	963.7449340820312	957.7146606445312	103.7533569335938	977.5006713867188	981.978759765625	95.01658630371094	970.90966796875	1251.800415039062	170.9539794921875	501.4062194824219	1263.69482421875	193.9161987304688	644.2617797851562	1297.874633789062	271.6932983398438	49.72555541992188	1290.671997070312	228.8055267333984	267.6769409179688	1290.055053710938	67.18849945068359	46.63879776000977	1277.500122070312	115.7720489501953	44.47284698486328	1225.087646484375	168.3075256347656	40.86664199829102	1325.12939453125	326.18310546875	45.27674865722656	1215.8935546875	178.6134185791016	516.2478637695312	963.4832153320312	154.9374847412109	786.5748291015625	942.9586181640625	266.4663391113281	44.07557678222656	948.497314453125	202.5413055419922	398.4184265136719	951.8673706054688	51.40937805175781	41.39768600463867	992.30908203125	113.5738525390625	44.1793098449707	1030.605712890625	141.1917724609375	47.42796325683594	937.0298461914062	316.422607421875	43.93806457519531	1004.497436523438	
94	0.93	294.9490661621094	1034.749877929688	1033.08935546875	309.1687927246094	1032.021728515625	1208.00390625	297.6923828125	1081.655883789062	1126.939697265625	57.73214721679688	1283.500366210938	1130.697387695312	323.5660705566406	1215.223754882812	1131.552490234375	268.878173828125	1483.090087890625	1134.420654296875	89.42132568359375	1397.732299804688	1131.997314453125	329.0188903808594	1343.556884765625	1059.089477539062	290.5469665527344	1445.315063476562	1236.226440429688	186.7358703613281	1450.469116210938	1308.331909179688	196.2541809082031	1321.454345703125	1384.506958007812	163.6570281982422	1106.322265625	1396.9853515625	230.40673828125	1090.718017578125	1313.86767578125	65.52744293212891	870.1326293945312	1325.114379882812	108.8001708984375	846.5283203125	1377.998779296875	137.1597747802734	998.005615234375	1401.667358398438	53.80588150024414	690.6060791015625	1294.712524414062	82.58792877197266	776.0758056640625	1379.097900390625	37.42112350463867	789.8310546875	1325.957641601562	203.8753814697266	1445.192626953125	957.8927001953125	212.0402221679688	1374.546997070312	894.83154296875	227.7936248779297	1104.880981445312	878.3662719726562	212.3146057128906	1088.929321289062	974.8037109375	81.33836364746094	857.232177734375	924.37353515625	149.6387481689453	839.7932739257812	873.106201171875	212.1134033203125	1026.537109375	875.155029296875	81.15806579589844	674.7596435546875	953.0364379882812	52.35967636108398	755.8623657226562	925.2258911132812	108.6224365234375	751.264404296875	870.7976684570312	232.300048828125	1671.347045898438	1193.392211914062	70.13242340087891	1689.399047851562	1052.66845703125	57.26005554199219	1700.864624023438	1177.597534179688	237.7519683837891	1651.92822265625	1057.47509765625	210.8671722412109	966.0084228515625	1300.455322265625	227.1692657470703	963.855224609375	957.895263671875	103.6000289916992	977.6363525390625	982.2568359375	95.10494995117188	971.0665893554688	1252.1142578125	169.3812561035156	501.602294921875	1263.594116210938	193.0103607177734	644.2850952148438	1297.957153320312	271.7806701660156	49.74014282226562	1290.769409179688	227.8926544189453	267.54150390625	1289.860717773438	67.2921142578125	46.71172332763672	1277.4140625	115.8611679077148	44.5390739440918	1224.995727539062	168.3819580078125	40.99562072753906	1325.114501953125	326.2525939941406	45.26907730102539	1215.935791015625	177.855712890625	516.588623046875	963.2125244140625	154.7435913085938	786.7916870117188	943.1868896484375	266.53173828125	43.89202880859375	948.2396240234375	201.6179046630859	398.3079223632812	951.6959228515625	51.5323486328125	41.57285308837891	992.1746215820312	113.7472763061523	44.35988998413086	1030.489624023438	141.2847747802734	47.42423629760742	936.8799438476562	316.4937133789062	43.77822494506836	1004.201782226562	
